<svg width="161" height="40" viewBox="0 0 161 40" fill="none" xmlns="http://www.w3.org/2000/svg">
<rect y="4" width="32" height="32" rx="6" fill="#51B1AA"/>
<path d="M23 11H22C20.8954 11 20 11.8954 20 13V27C20 28.1046 20.8954 29 22 29H23C24.1046 29 25 28.1046 25 27V13C25 11.8954 24.1046 11 23 11Z" fill="white"/>
<path d="M16.5 17H15.5C14.3954 17 13.5 17.8954 13.5 19V27C13.5 28.1046 14.3954 29 15.5 29H16.5C17.6046 29 18.5 28.1046 18.5 27V19C18.5 17.8954 17.6046 17 16.5 17Z" fill="white"/>
<path d="M10 24H9C7.89543 24 7 24.8954 7 26V27C7 28.1046 7.89543 29 9 29H10C11.1046 29 12 28.1046 12 27V26C12 24.8954 11.1046 24 10 24Z" fill="white"/>
<path d="M44.0859 8H50.3437L56.9531 24.125H57.2344L63.8437 8H70.1016V32H65.1797V16.3789H64.9805L58.7695 31.8828H55.418L49.207 16.3203H49.0078V32H44.0859V8ZM79.3213 32.3398C78.1729 32.3398 77.1494 32.1406 76.251 31.7422C75.3525 31.3359 74.6416 30.7383 74.1182 29.9492C73.6025 29.1523 73.3447 28.1602 73.3447 26.9727C73.3447 25.9727 73.5283 25.1328 73.8955 24.4531C74.2627 23.7734 74.7627 23.2266 75.3955 22.8125C76.0283 22.3984 76.7471 22.0859 77.5518 21.875C78.3643 21.6641 79.2158 21.5156 80.1064 21.4297C81.1533 21.3203 81.9971 21.2187 82.6377 21.125C83.2783 21.0234 83.7432 20.875 84.0322 20.6797C84.3213 20.4844 84.4658 20.1953 84.4658 19.8125V19.7422C84.4658 19 84.2314 18.4258 83.7627 18.0195C83.3018 17.6133 82.6455 17.4102 81.7939 17.4102C80.8955 17.4102 80.1807 17.6094 79.6494 18.0078C79.1182 18.3984 78.7666 18.8906 78.5947 19.4844L73.9775 19.1094C74.2119 18.0156 74.6729 17.0703 75.3604 16.2734C76.0479 15.4687 76.9346 14.8516 78.0205 14.4219C79.1143 13.9844 80.3799 13.7656 81.8174 13.7656C82.8174 13.7656 83.7744 13.8828 84.6885 14.1172C85.6104 14.3516 86.4268 14.7148 87.1377 15.207C87.8564 15.6992 88.4229 16.332 88.8369 17.1055C89.251 17.8711 89.458 18.7891 89.458 19.8594V32H84.7236V29.5039H84.583C84.2939 30.0664 83.9072 30.5625 83.4229 30.9922C82.9385 31.4141 82.3564 31.7461 81.6768 31.9883C80.9971 32.2227 80.2119 32.3398 79.3213 32.3398ZM80.751 28.8945C81.4854 28.8945 82.1338 28.75 82.6963 28.4609C83.2588 28.1641 83.7002 27.7656 84.0205 27.2656C84.3408 26.7656 84.501 26.1992 84.501 25.5664V23.6563C84.3447 23.7578 84.1299 23.8516 83.8564 23.9375C83.5908 24.0156 83.29 24.0898 82.9541 24.1602C82.6182 24.2227 82.2822 24.2812 81.9463 24.3359C81.6104 24.3828 81.3057 24.4258 81.0322 24.4648C80.4463 24.5508 79.9346 24.6875 79.4971 24.875C79.0596 25.0625 78.7197 25.3164 78.4775 25.6367C78.2354 25.9492 78.1143 26.3398 78.1143 26.8086C78.1143 27.4883 78.3604 28.0078 78.8525 28.3672C79.3525 28.7187 79.9854 28.8945 80.751 28.8945ZM98.3232 21.5938V32H93.3311V14H98.0889V17.1758H98.2998C98.6982 16.1289 99.3662 15.3008 100.304 14.6914C101.241 14.0742 102.378 13.7656 103.714 13.7656C104.964 13.7656 106.054 14.0391 106.983 14.5859C107.913 15.1328 108.636 15.9141 109.151 16.9297C109.667 17.9375 109.925 19.1406 109.925 20.5391V32H104.933V21.4297C104.94 20.3281 104.659 19.4687 104.089 18.8516C103.519 18.2266 102.733 17.9141 101.733 17.9141C101.062 17.9141 100.468 18.0586 99.9521 18.3477C99.4443 18.6367 99.0459 19.0586 98.7568 19.6133C98.4756 20.1602 98.3311 20.8203 98.3232 21.5938ZM113.766 32V29.0234L122.578 18.1133V17.9844H114.07V14H128.59V17.2461L120.316 27.8867V28.0156H128.895V32H113.766ZM140.329 32.3516C138.509 32.3516 136.935 31.9648 135.606 31.1914C134.286 30.4102 133.267 29.3242 132.548 27.9336C131.829 26.5352 131.47 24.9141 131.47 23.0703C131.47 21.2109 131.829 19.5859 132.548 18.1953C133.267 16.7969 134.286 15.7109 135.606 14.9375C136.935 14.1562 138.509 13.7656 140.329 13.7656C142.149 13.7656 143.72 14.1562 145.04 14.9375C146.368 15.7109 147.392 16.7969 148.11 18.1953C148.829 19.5859 149.188 21.2109 149.188 23.0703C149.188 24.9141 148.829 26.5352 148.11 27.9336C147.392 29.3242 146.368 30.4102 145.04 31.1914C143.72 31.9648 142.149 32.3516 140.329 32.3516ZM140.353 28.4844C141.181 28.4844 141.872 28.25 142.427 27.7813C142.981 27.3047 143.399 26.6562 143.681 25.8359C143.97 25.0156 144.114 24.082 144.114 23.0352C144.114 21.9883 143.97 21.0547 143.681 20.2344C143.399 19.4141 142.981 18.7656 142.427 18.2891C141.872 17.8125 141.181 17.5742 140.353 17.5742C139.517 17.5742 138.813 17.8125 138.243 18.2891C137.681 18.7656 137.255 19.4141 136.966 20.2344C136.685 21.0547 136.544 21.9883 136.544 23.0352C136.544 24.082 136.685 25.0156 136.966 25.8359C137.255 26.6562 137.681 27.3047 138.243 27.7813C138.813 28.25 139.517 28.4844 140.353 28.4844ZM155.353 32.3047C154.579 32.3047 153.915 32.0313 153.36 31.4844C152.813 30.9297 152.54 30.2656 152.54 29.4922C152.54 28.7266 152.813 28.0703 153.36 27.5234C153.915 26.9766 154.579 26.7031 155.353 26.7031C156.103 26.7031 156.759 26.9766 157.321 27.5234C157.884 28.0703 158.165 28.7266 158.165 29.4922C158.165 30.0078 158.032 30.4805 157.767 30.9102C157.509 31.332 157.169 31.6719 156.747 31.9297C156.325 32.1797 155.86 32.3047 155.353 32.3047Z" fill="black"/>
</svg>
